<svg xmlns="http://www.w3.org/2000/svg" viewBox="0 0 28.4 28.4"><title>icon-social-fb</title><g data-name="Layer 2"><circle cx="14.2" cy="14.2" r="14.2" fill="#005688"/><path d="M17.93 5.39h-2.24a3.93 3.93 0 0 0-4.14 4.25v2H9.3a.35.35 0 0 0-.35.35v2.84a.35.35 0 0 0 .35.35h2.25v7.12a.35.35 0 0 0 .35.35h2.94a.35.35 0 0 0 .35-.35v-7.16h2.63a.35.35 0 0 0 .35-.35v-2.84a.35.35 0 0 0-.35-.35h-2.63V9.94c0-.8.19-1.2 1.23-1.2h1.51a.35.35 0 0 0 .35-.35V5.74a.35.35 0 0 0-.35-.35zm0 0" fill="#f1f1f1"/></g></svg>