<svg xmlns="http://www.w3.org/2000/svg" viewBox="0 0 28.4 28.4"><title>icon-social-twitter</title><g data-name="Layer 2"><circle cx="14.2" cy="14.2" r="14.2" fill="#3fa8f4"/><path d="M22.28 8.91a6.62 6.62 0 0 1-1.9.52 3.33 3.33 0 0 0 1.45-1.83 6.69 6.69 0 0 1-2.11.8 3.32 3.32 0 0 0-5.65 3A9.41 9.41 0 0 1 7.24 8a3.32 3.32 0 0 0 1 4.43A3.32 3.32 0 0 1 6.77 12a3.32 3.32 0 0 0 2.66 3.25 3.36 3.36 0 0 1-.87.12 3.18 3.18 0 0 1-.62-.06 3.32 3.32 0 0 0 3.1 2.3A6.65 6.65 0 0 1 6.91 19a7 7 0 0 1-.79 0 9.43 9.43 0 0 0 14.51-8v-.43a6.62 6.62 0 0 0 1.66-1.71zm0 0" fill="#f1f1f1"/></g></svg>