<svg xmlns="http://www.w3.org/2000/svg" xmlns:xlink="http://www.w3.org/1999/xlink" viewBox="0 0 305.5 197"><style>.st0{display:none}.st1{display:inline;fill:#d1d1d1}.st2{fill:none;stroke:#1a1a1a;stroke-width:7;stroke-linecap:round;stroke-miterlimit:10}.st3{clip-path:url(#SVGID_2_);fill:#fdfeff}.st4{fill:#fff}.st5{opacity:.25}.st5,.st6{fill:#be0d00}.st7{fill:none;stroke:#be0d00;stroke-width:3;stroke-linecap:round;stroke-miterlimit:10}</style><g id="Layer_2" class="st0"><path class="st1" d="M-168.6 -206.4H481.69999999999993V273.6H-168.6z"/></g><g id="Layer_1"><path class="st2" d="M52.6 191.9L204 191.9"/><path class="st2" d="M214.2 191.9L240 191.9"/><defs><path id="SVGID_1_" d="M44.4 14.8H251.1V184H44.4z"/></defs><clipPath id="SVGID_2_"><use xlink:href="#SVGID_1_" overflow="visible"/></clipPath><path class="st3" d="M148.5 17.4C92.4 17.4 47 62.9 47 118.9s45.5 101.5 101.5 101.5S250.1 175 250.1 118.9 204.6 17.4 148.5 17.4z"/><path class="st4" d="M77.7 77.1c0 3.5-2.8 6.2-6.2 6.2-3.5 0-6.2-2.8-6.2-6.2m238.4-24.5l-1.9-1.9c-2.4-2.4-6.3-2.4-8.7 0L269.9 74c-3.6 1.1-11.3 2.3-10.2-6.3l33.5-33.5c4.7-4.7 4.7-12.3 0-17l-5.1-5.1c-4.7-4.7-12.3-4.7-17 0l-53.5 53.5c-1.7 1.7-2.8 3.8-3.2 6-11.5 19.9 4.2 42.2 23.2 34.8l-17.7 17.7c-2.4 2.4-2.4 6.3 0 8.7l1.9 1.9c2.4 2.4 6.3 2.4 8.7 0l73.4-73.4c2.2-2.3 2.2-6.3-.2-8.7z"/><circle class="st4" cx="261.7" cy="132.3" r="3.6"/><circle class="st4" cx="285.2" cy="110" r="7.3"/><path class="st4" d="M48.2 92.5c-2-2-5.4-2-7.4 0l-6 6c-2 2-2 5.4 0 7.4l1 1c2 2 5.4 2 7.4 0l6-6c2-2 2-5.4 0-7.4l-1-1z"/><circle class="st4" cx="75.2" cy="32.9" r="7.1"/><path class="st4" d="M60.3 12.9c-1.3-1.3-3.3-1.3-4.6 0L12 56.6c-3.8 3.9-1.3 8.7 3.6 10.8 1.5.7 1.9 2.7.7 3.8L3.2 84.3c-4.3 4.3-4.3 11.3 0 15.5l2.1 2.1c4.3 4.3 11.3 4.3 15.5 0l36.5-36.5c4.3-4.3 4.3-11.3 0-15.5l-2.1-2.1c-4.3-4.3-11.3-4.3-15.5 0l-.4.4c-3.1 3.1-6.8 2.4-6.8-1.7l28.4-28.4c1.3-1.3 1.3-3.3 0-4.6l-.6-.6zm157.9 22.5l-7.6 7.6c-1.6 1.6-4.3 1.6-6 0l-1.3-1.3c-1.6-1.6-1.6-4.3 0-6l7.6-7.6c1.6-1.6 4.3-1.6 6 0l1.3 1.3c1.6 1.7 1.6 4.4 0 6z"/><g><path class="st5" d="M199.5 110.9h-6.1c-2.9-8.6-8.5-16.1-16-21.3l1.5-13.6c.1-.8-.3-1.6-.9-2.1-.6-.5-1.5-.7-2.2-.5l-19.4 4.7c-3-4.5-8-7.3-13.5-7.3-6.3 0-11.9 3.7-14.5 9.5-8.3 1.8-16.1 5.4-22.8 10.7-5.4 4.2-9.8 9.7-12.7 16-4.4-.4-8.2-3.3-9.6-7.6-1.4-4.2-.1-8.9 3.2-11.8.5-.4.9-1.1.9-1.8.1-.7-.2-1.4-.6-1.9-.5-.5-1.1-.8-1.8-.9-.7 0-1.4.2-1.9.7-4.7 4.1-6.6 10.5-4.9 16.5 1.7 6 6.7 10.5 12.8 11.5-.9 3.2-1.4 6.4-1.4 9.7 0 12.2 6.3 23.7 17.4 31.9l-2.2 3.9c-2 3.9-.6 8.7 3.2 10.9l5.2 3.1c1.2.7 2.5 1 3.9 1 .7 0 1.4-.1 2-.3 2-.5 3.7-1.9 4.7-3.7l2.9-5.7c5.1 1.3 10.4 2 15.6 2 4.4 0 8.8-.4 13.1-1.3l.8 2.8c.8 3.6 4 6.1 7.6 6.1.5 0 1.1-.1 1.6-.2l5.9-1.3c4.2-1.1 6.7-5.3 5.6-9.5l-1.3-6.2c6.4-4.1 11.6-9.7 15.2-16.3h8.7c4.2-.1 7.5-3.4 7.6-7.6v-12.4c0-4.1-3.4-7.6-7.6-7.7z"/><path class="st6" d="M207.8 137.3c0 .7-.3 1.3-.7 1.8-.5.5-1.1.7-1.8.7h-11.1c-.3.2-.6.3-.8.5-.1.1-.2.3-.3.5-.1.1-.2.2-.2.3-3.5 6.9-8.9 12.7-15.5 16.6-.2.1-.3.2-.4.4l-.3.3c-.1.3-.3.6-.4.9v1l1.7 7.9c.4 1.4-.3 2.9-1.7 3.5l-5.9 1.3c-.7.1-1.5 0-2.1-.4-.6-.4-1-1-1.1-1.8l-1.6-4.8c-.1-.1-.1-.3-.2-.4-.1-.2-.2-.3-.3-.5l-.4-.4c-.2-.3-.6-.5-.9-.5H162.5c-10 2.5-20.5 2.3-30.5-.5h-1.3l-.5.2-.4.2-.4.3c-.1.1-.2.2-.3.4l-.2.2-3.8 7.4c-.3.6-.9 1-1.6 1.2-.7.2-1.4.1-2-.3l-5.3-3c-1.4-.8-1.9-2.5-1.3-4l3.3-5.7v-.1-.3c.1-.2.2-.4.2-.6v-.3c.1-.3 0-.7-.2-.9l-.3-.6-.3-.3c-.1-.1-.2-.3-.4-.4-10.8-7.3-17.1-17.8-17.1-29 0-3.8.7-7.6 2.1-11.2v-.2c2.5-6 6.6-11.3 11.8-15.2 5.4-4.2 11.6-7.3 18.3-9.1v.9c0 3 .9 6 2.5 8.6-1.5.8-3 1.8-4.3 2.8-1.1 1-1.2 2.6-.2 3.6 1 1.1 2.6 1.2 3.6.2 1.8-1.4 3.9-2.6 6-3.4 4.2-1.6 8.8-2 13.2-1.2 4.4.9 8.5 3 11.8 6.1 1 1 2.6.9 3.6-.1s.9-2.6-.1-3.6c-2-1.9-4.2-3.6-6.6-4.9 1.6-2.5 2.5-5.4 2.5-8.4v-.6c5.1 1.5 10 3.8 14.4 6.7 7.6 4.9 13.3 12.4 15.8 21.1v.2l.1.3c.1.2.2.3.3.5l.2.3c.1.1.3.2.5.3l.3.2c.2.1.5.1.7.1h8.3c.7 0 1.3.3 1.8.7.5.5.7 1.1.7 1.8l.4 12.7zm-59.1-55.1c4.2 0 8 2.4 9.8 6.1.2.5.4 1 .6 1.4.4 1 .6 2.1.6 3.3 0 2.3-.8 4.6-2.2 6.4-5.6-1.7-11.6-1.7-17.2.1-1.5-1.9-2.2-4.2-2.3-6.5 0-5.9 4.8-10.8 10.7-10.8zm29.7 10.6c-3.3-1.9-6.9-3.5-10.5-4.7l11.3-2.8-.8 7.5zm26.9 24.4h-6.1c-2.9-8.6-8.5-16.1-16-21.3l1.5-13.6c.1-.8-.3-1.6-.9-2.1-.6-.5-1.5-.7-2.3-.5l-19.4 4.7c-3-4.5-8-7.3-13.5-7.3-6.3 0-11.9 3.7-14.5 9.5-8.3 1.8-16.1 5.4-22.8 10.7-5.4 4.2-9.8 9.7-12.7 16-4.4-.4-8.2-3.3-9.6-7.6-1.4-4.2-.1-8.9 3.2-11.8.5-.4.9-1.1.9-1.8.1-.7-.2-1.4-.6-1.9-.5-.5-1.1-.8-1.8-.9-.7 0-1.4.2-1.9.7-4.7 4.1-6.6 10.5-4.9 16.5 1.7 6 6.7 10.5 12.8 11.5-.9 3.2-1.4 6.4-1.4 9.7 0 12.2 6.3 23.7 17.4 31.9l-2.2 3.9c-2 3.9-.6 8.7 3.2 10.9l5.2 3.1c1.2.7 2.5 1 3.9 1 .7 0 1.4-.1 2-.3 2-.5 3.7-1.9 4.7-3.7l2.9-5.7c5.1 1.3 10.4 2 15.6 2 4.4 0 8.8-.4 13.1-1.3l.8 2.8c.8 3.6 4 6.1 7.6 6.1.5 0 1.1-.1 1.6-.2l5.9-1.3c4.2-1.1 6.7-5.3 5.6-9.5l-1.3-6.2c6.4-4.1 11.6-9.7 15.2-16.3h8.7c4.2-.1 7.5-3.4 7.6-7.6v-12.4c.1-4.2-3.3-7.6-7.5-7.7z"/><path class="st6" d="M184.9 123.9c0 4.7-7.1 4.7-7.1 0s7.1-4.7 7.1 0"/></g><path class="st7" d="M191 93.9s9.6 2.2 11.8 13.3m-11.9 59.5s5.9-4.2 8.7-11.1M81.2 141.1s-.2 11.8 10 16"/></g></svg>