<svg xmlns="http://www.w3.org/2000/svg" viewBox="0 0 32.57 40"><title>Asset 1</title><path d="M8.07,25.73c0-.66-.46-1.06-1.27-1.06a2.83,2.83,0,0,0-.67.06v2.13a2.57,2.57,0,0,0,.55,0c.87,0,1.4-.44,1.4-1.18Zm0,0" fill="#fff"/><path d="M13.1,24.7a3.37,3.37,0,0,0-.74.06v4.72a2.94,2.94,0,0,0,.57,0A2.24,2.24,0,0,0,15.37,27,2.07,2.07,0,0,0,13.1,24.7Zm0,0" fill="#fff"/><path d="M22.45,0H6.39A4.26,4.26,0,0,0,2.13,4.26V20H1.72A1.72,1.72,0,0,0,0,21.72v10.4a1.71,1.71,0,0,0,1.72,1.72h.42v1.91A4.26,4.26,0,0,0,6.39,40H28.31a4.26,4.26,0,0,0,4.26-4.26V10.08ZM4.5,23.59a13.42,13.42,0,0,1,2.2-.15A3.46,3.46,0,0,1,8.91,24a2.11,2.11,0,0,1,.77,1.67A2.31,2.31,0,0,1,9,27.4a3.35,3.35,0,0,1-2.34.76,4.19,4.19,0,0,1-.56,0v2.58H4.5Zm23.81,13.8H6.39a1.65,1.65,0,0,1-1.65-1.65V33.83H25.17a1.71,1.71,0,0,0,1.72-1.72V21.72A1.72,1.72,0,0,0,25.17,20H4.74V4.26A1.65,1.65,0,0,1,6.39,2.61l15.09,0V8.17a3,3,0,0,0,3,3l5.46,0L30,35.74a1.65,1.65,0,0,1-1.65,1.65ZM10.72,30.68V23.59a14.67,14.67,0,0,1,2.21-.15,4.64,4.64,0,0,1,3,.77,3.19,3.19,0,0,1,1.22,2.72,3.66,3.66,0,0,1-1.2,2.92,5.18,5.18,0,0,1-3.33.93,14.14,14.14,0,0,1-1.85-.11Zm11.68-4.2v1.33H19.82v2.9H18.18V23.5h4.41v1.34H19.82v1.65Zm0,0" fill="#fff"/></svg>